<svg xmlns="http://www.w3.org/2000/svg" xmlns:xlink="http://www.w3.org/1999/xlink" width="500" zoomAndPan="magnify" viewBox="0 0 375 306.749988" height="409" preserveAspectRatio="xMidYMid meet" version="1.0"><defs><filter x="0%" y="0%" width="100%" height="100%" id="d1aa616daa"><feColorMatrix values="0 0 0 0 1 0 0 0 0 1 0 0 0 0 1 0 0 0 1 0" color-interpolation-filters="sRGB"/></filter><clipPath id="22488ecf05"><path d="M 0.152344 0 L 374.847656 0 L 374.847656 306.5 L 0.152344 306.5 Z M 0.152344 0 " clip-rule="nonzero"/></clipPath><clipPath id="a56cc7da89"><path d="M 260 38 L 318 38 L 318 59 L 260 59 Z M 260 38 " clip-rule="nonzero"/></clipPath><clipPath id="f69d09d7bf"><path d="M 277.703125 84.113281 C 275.984375 83.578125 274.355469 82.816406 272.808594 81.835938 C 271.265625 80.855469 269.839844 79.667969 268.53125 78.28125 C 267.222656 76.890625 266.054688 75.328125 265.027344 73.585938 C 264.003906 71.84375 263.140625 69.957031 262.441406 67.929688 C 261.738281 65.898438 261.210938 63.765625 260.863281 61.53125 C 260.511719 59.292969 260.34375 56.996094 260.359375 54.636719 C 260.371094 52.273438 260.566406 49.898438 260.945312 47.507812 C 261.324219 45.117188 261.875 42.753906 262.601562 40.421875 C 263.328125 38.089844 264.21875 35.835938 265.265625 33.652344 C 266.3125 31.472656 267.503906 29.40625 268.832031 27.457031 C 270.160156 25.507812 271.605469 23.714844 273.164062 22.074219 C 274.722656 20.433594 276.367188 18.980469 278.097656 17.710938 C 279.828125 16.441406 281.609375 15.382812 283.441406 14.535156 C 285.273438 13.6875 287.125 13.0625 288.988281 12.667969 C 290.855469 12.273438 292.703125 12.109375 294.53125 12.183594 C 296.355469 12.253906 298.128906 12.558594 299.847656 13.097656 C 301.566406 13.632812 303.199219 14.390625 304.742188 15.375 C 306.285156 16.355469 307.710938 17.542969 309.023438 18.929688 C 310.332031 20.320312 311.5 21.882812 312.523438 23.625 C 313.546875 25.367188 314.410156 27.253906 315.113281 29.28125 C 315.8125 31.308594 316.339844 33.445312 316.691406 35.679688 C 317.039062 37.917969 317.207031 40.214844 317.195312 42.574219 C 317.179688 44.933594 316.984375 47.3125 316.605469 49.703125 C 316.230469 52.09375 315.675781 54.457031 314.949219 56.789062 C 314.222656 59.121094 313.335938 61.375 312.285156 63.558594 C 311.238281 65.738281 310.050781 67.804688 308.71875 69.753906 C 307.390625 71.703125 305.945312 73.496094 304.386719 75.136719 C 302.828125 76.777344 301.183594 78.230469 299.453125 79.5 C 297.726562 80.769531 295.945312 81.828125 294.109375 82.675781 C 292.277344 83.523438 290.429688 84.148438 288.5625 84.542969 C 286.695312 84.9375 284.851562 85.101562 283.023438 85.027344 C 281.195312 84.957031 279.421875 84.652344 277.703125 84.113281 Z M 277.703125 84.113281 " clip-rule="nonzero"/></clipPath><clipPath id="c1e03b7bae"><path d="M 113.460938 89.085938 L 231 89.085938 L 231 174 L 113.460938 174 Z M 113.460938 89.085938 " clip-rule="nonzero"/></clipPath><clipPath id="9f676c2e36"><path d="M 182.230469 110.4375 C 196.6875 84.664062 225.601562 84.664062 240.0625 97.550781 C 254.519531 110.4375 254.519531 136.210938 240.0625 161.980469 C 229.941406 181.3125 203.917969 200.640625 182.230469 213.527344 C 160.542969 200.640625 134.519531 181.3125 124.398438 161.980469 C 109.941406 136.210938 109.941406 110.4375 124.398438 97.550781 C 138.855469 84.664062 167.769531 84.664062 182.230469 110.4375 Z M 182.230469 110.4375 " clip-rule="evenodd"/></clipPath><clipPath id="5600d9549a"><path d="M 117 94 L 162 94 L 162 143 L 117 143 Z M 117 94 " clip-rule="nonzero"/></clipPath><clipPath id="059a1f68f4"><path d="M 182.230469 110.4375 C 196.6875 84.664062 225.601562 84.664062 240.0625 97.550781 C 254.519531 110.4375 254.519531 136.210938 240.0625 161.980469 C 229.941406 181.3125 203.917969 200.640625 182.230469 213.527344 C 160.542969 200.640625 134.519531 181.3125 124.398438 161.980469 C 109.941406 136.210938 109.941406 110.4375 124.398438 97.550781 C 138.855469 84.664062 167.769531 84.664062 182.230469 110.4375 Z M 182.230469 110.4375 " clip-rule="evenodd"/></clipPath><clipPath id="1355bcb84c"><path d="M 0.152344 0 L 374.847656 0 L 374.847656 306.5 L 0.152344 306.5 Z M 0.152344 0 " clip-rule="nonzero"/></clipPath><mask id="8d6bcc4c86"><g filter="url(#d1aa616daa)"><rect x="-37.5" width="450" fill="#000000" y="-30.674999" height="368.099986" fill-opacity="0.25"/></g></mask><clipPath id="15809e3232"><path d="M 0.152344 0 L 374.847656 0 L 374.847656 306.5 L 0.152344 306.5 Z M 0.152344 0 " clip-rule="nonzero"/></clipPath><clipPath id="164558d841"><rect x="0" width="375" y="0" height="307"/></clipPath></defs><g clip-path="url(#22488ecf05)"><path fill="#ffffff" d="M 0.152344 0 L 374.847656 0 L 374.847656 306.5 L 0.152344 306.5 Z M 0.152344 0 " fill-opacity="1" fill-rule="nonzero"/><path fill="#2f2b37" d="M 0.152344 0 L 374.847656 0 L 374.847656 306.5 L 0.152344 306.5 Z M 0.152344 0 " fill-opacity="1" fill-rule="nonzero"/></g><path fill="#454545" d="M 140.738281 130.40625 C 137.898438 130.816406 135.085938 131.394531 132.3125 132.140625 C 93.636719 142.515625 70.652344 182.382812 81.015625 221.105469 C 91.378906 259.832031 131.191406 282.847656 169.867188 272.472656 C 172.640625 271.726562 175.363281 270.820312 178.027344 269.753906 L 176.113281 264.957031 C 173.640625 265.949219 171.105469 266.792969 168.53125 267.480469 C 132.605469 277.121094 95.621094 255.742188 85.996094 219.769531 C 76.371094 183.796875 97.722656 146.765625 133.648438 137.128906 C 136.222656 136.4375 138.835938 135.902344 141.476562 135.519531 Z M 140.738281 130.40625 " fill-opacity="1" fill-rule="evenodd"/><path fill="#454545" d="M 191.199219 115.589844 C 193.820312 116.648438 196.503906 117.542969 199.234375 118.277344 C 237.332031 128.496094 276.675781 105.355469 287.039062 66.628906 C 287.78125 63.855469 288.363281 61.039062 288.777344 58.195312 L 283.746094 57.476562 C 283.359375 60.117188 282.820312 62.734375 282.132812 65.3125 C 272.503906 101.285156 235.960938 122.78125 200.570312 113.289062 C 198.035156 112.605469 195.539062 111.773438 193.105469 110.792969 Z M 191.199219 115.589844 " fill-opacity="1" fill-rule="evenodd"/><path fill="#218800" d="M 275.199219 80.453125 L 280.609375 83.613281 L 277.863281 88.320312 L 272.457031 85.160156 Z M 275.199219 80.453125 " fill-opacity="1" fill-rule="evenodd"/><path fill="#454545" d="M 299.847656 13.097656 C 300.707031 13.363281 301.542969 13.6875 302.359375 14.070312 C 303.179688 14.449219 303.972656 14.882812 304.742188 15.375 C 305.511719 15.863281 306.253906 16.40625 306.96875 17 C 307.683594 17.59375 308.367188 18.238281 309.023438 18.929688 C 309.675781 19.621094 310.292969 20.359375 310.878906 21.144531 C 311.464844 21.929688 312.011719 22.757812 312.523438 23.625 C 313.035156 24.496094 313.507812 25.402344 313.9375 26.347656 C 314.371094 27.292969 314.761719 28.269531 315.113281 29.28125 C 315.460938 30.292969 315.769531 31.335938 316.03125 32.402344 C 316.296875 33.472656 316.515625 34.566406 316.691406 35.679688 C 316.863281 36.796875 316.992188 37.929688 317.078125 39.082031 C 317.164062 40.234375 317.199219 41.398438 317.195312 42.574219 C 317.1875 43.753906 317.132812 44.9375 317.035156 46.128906 C 316.9375 47.316406 316.796875 48.511719 316.605469 49.703125 C 316.417969 50.894531 316.183594 52.082031 315.910156 53.269531 C 315.632812 54.453125 315.3125 55.625 314.949219 56.789062 C 314.585938 57.949219 314.183594 59.097656 313.738281 60.230469 C 313.292969 61.359375 312.808594 62.46875 312.285156 63.558594 C 311.761719 64.644531 311.203125 65.707031 310.609375 66.742188 C 310.011719 67.777344 309.382812 68.78125 308.71875 69.753906 C 308.058594 70.726562 307.363281 71.660156 306.640625 72.5625 C 305.914062 73.460938 305.164062 74.320312 304.386719 75.136719 C 303.609375 75.953125 302.808594 76.726562 301.984375 77.457031 C 301.160156 78.1875 300.316406 78.867188 299.453125 79.5 C 298.589844 80.132812 297.714844 80.714844 296.820312 81.246094 C 295.929688 81.777344 295.023438 82.253906 294.109375 82.675781 C 293.195312 83.101562 292.277344 83.46875 291.347656 83.777344 C 290.421875 84.089844 289.492188 84.347656 288.5625 84.542969 C 287.632812 84.742188 286.703125 84.878906 285.777344 84.960938 C 284.851562 85.042969 283.933594 85.066406 283.023438 85.027344 C 282.109375 84.992188 281.210938 84.898438 280.324219 84.746094 C 279.433594 84.59375 278.5625 84.382812 277.703125 84.113281 C 276.847656 83.847656 276.007812 83.523438 275.191406 83.140625 C 274.375 82.761719 273.582031 82.328125 272.808594 81.835938 C 272.039062 81.347656 271.296875 80.804688 270.582031 80.210938 C 269.867188 79.617188 269.183594 78.972656 268.53125 78.28125 C 267.878906 77.589844 267.257812 76.851562 266.671875 76.066406 C 266.089844 75.28125 265.539062 74.453125 265.027344 73.585938 C 264.515625 72.714844 264.046875 71.808594 263.613281 70.863281 C 263.179688 69.917969 262.789062 68.941406 262.441406 67.929688 C 262.089844 66.917969 261.78125 65.875 261.519531 64.808594 C 261.257812 63.738281 261.039062 62.644531 260.863281 61.53125 C 260.6875 60.414062 260.558594 59.28125 260.472656 58.128906 C 260.390625 56.976562 260.351562 55.8125 260.359375 54.636719 C 260.363281 53.457031 260.417969 52.273438 260.515625 51.082031 C 260.613281 49.894531 260.757812 48.699219 260.945312 47.507812 C 261.132812 46.316406 261.367188 45.125 261.644531 43.941406 C 261.921875 42.757812 262.238281 41.585938 262.601562 40.421875 C 262.964844 39.261719 263.371094 38.113281 263.8125 36.980469 C 264.257812 35.851562 264.742188 34.742188 265.265625 33.652344 C 265.789062 32.566406 266.347656 31.503906 266.945312 30.46875 C 267.539062 29.433594 268.167969 28.429688 268.832031 27.457031 C 269.496094 26.484375 270.1875 25.550781 270.914062 24.648438 C 271.636719 23.75 272.386719 22.890625 273.164062 22.074219 C 273.941406 21.257812 274.742188 20.484375 275.566406 19.753906 C 276.390625 19.023438 277.234375 18.34375 278.097656 17.710938 C 278.960938 17.078125 279.839844 16.496094 280.730469 15.964844 C 281.625 15.433594 282.527344 14.957031 283.441406 14.535156 C 284.355469 14.109375 285.277344 13.742188 286.203125 13.433594 C 287.128906 13.121094 288.058594 12.863281 288.988281 12.667969 C 289.921875 12.46875 290.847656 12.332031 291.773438 12.25 C 292.699219 12.167969 293.617188 12.144531 294.53125 12.183594 C 295.441406 12.21875 296.339844 12.3125 297.230469 12.464844 C 298.117188 12.617188 298.992188 12.828125 299.847656 13.097656 Z M 299.847656 13.097656 " fill-opacity="1" fill-rule="nonzero"/><g clip-path="url(#a56cc7da89)"><g clip-path="url(#f69d09d7bf)"><path fill="#218800" d="M 258.371094 38.472656 L 320.167969 55.054688 L 319.183594 58.738281 L 257.382812 42.15625 Z M 258.371094 38.472656 " fill-opacity="1" fill-rule="evenodd"/></g></g><path fill="#218800" d="M 303.101562 12.332031 C 303.417969 11.285156 302.832031 10.183594 301.789062 9.867188 C 301.082031 9.652344 300.277344 9.40625 299.570312 9.191406 C 298.527344 8.875 297.425781 9.460938 297.109375 10.507812 C 296.824219 11.445312 296.539062 12.386719 296.539062 12.386719 L 302.53125 14.210938 Z M 303.101562 12.332031 " fill-opacity="1" fill-rule="evenodd"/><path fill="#cc0007" d="M 182.230469 110.4375 C 196.6875 84.664062 225.601562 84.664062 240.0625 97.550781 C 254.519531 110.4375 254.519531 136.210938 240.0625 161.980469 C 229.941406 181.3125 203.917969 200.640625 182.230469 213.527344 C 160.542969 200.640625 134.519531 181.3125 124.398438 161.980469 C 109.941406 136.210938 109.941406 110.4375 124.398438 97.550781 C 138.855469 84.664062 167.769531 84.664062 182.230469 110.4375 Z M 182.230469 110.4375 " fill-opacity="1" fill-rule="evenodd"/><g clip-path="url(#c1e03b7bae)"><g clip-path="url(#9f676c2e36)"><path fill="#ff5d62" d="M 230.503906 114.140625 C 230.503906 115.117188 230.472656 116.089844 230.40625 117.0625 C 230.34375 118.039062 230.246094 119.011719 230.117188 119.980469 C 229.988281 120.949219 229.828125 121.917969 229.636719 122.882812 C 229.445312 123.847656 229.222656 124.808594 228.964844 125.761719 C 228.710938 126.71875 228.421875 127.667969 228.105469 128.617188 C 227.785156 129.5625 227.4375 130.5 227.054688 131.433594 C 226.675781 132.367188 226.265625 133.292969 225.824219 134.210938 C 225.382812 135.128906 224.910156 136.035156 224.410156 136.9375 C 223.90625 137.839844 223.378906 138.730469 222.816406 139.609375 C 222.257812 140.492188 221.667969 141.363281 221.050781 142.222656 C 220.433594 143.082031 219.785156 143.929688 219.113281 144.765625 C 218.441406 145.601562 217.738281 146.425781 217.011719 147.234375 C 216.28125 148.046875 215.527344 148.84375 214.75 149.625 C 213.96875 150.410156 213.160156 151.179688 212.332031 151.929688 C 211.5 152.683594 210.644531 153.421875 209.765625 154.144531 C 208.882812 154.867188 207.980469 155.574219 207.054688 156.261719 C 206.128906 156.953125 205.179688 157.625 204.207031 158.277344 C 203.238281 158.933594 202.246094 159.570312 201.234375 160.1875 C 200.21875 160.808594 199.1875 161.40625 198.136719 161.988281 C 197.082031 162.566406 196.011719 163.128906 194.921875 163.671875 C 193.832031 164.210938 192.726562 164.734375 191.601562 165.234375 C 190.476562 165.738281 189.339844 166.21875 188.183594 166.675781 C 187.027344 167.136719 185.855469 167.574219 184.671875 167.992188 C 183.488281 168.40625 182.289062 168.804688 181.082031 169.175781 C 179.871094 169.550781 178.648438 169.898438 177.414062 170.226562 C 176.179688 170.554688 174.9375 170.863281 173.683594 171.144531 C 172.429688 171.429688 171.167969 171.6875 169.894531 171.925781 C 168.625 172.160156 167.347656 172.375 166.0625 172.566406 C 164.777344 172.757812 163.484375 172.921875 162.1875 173.066406 C 160.894531 173.207031 159.59375 173.328125 158.289062 173.421875 C 156.984375 173.519531 155.679688 173.589844 154.371094 173.636719 C 153.0625 173.6875 151.753906 173.710938 150.441406 173.710938 C 149.132812 173.710938 147.820312 173.6875 146.511719 173.636719 C 145.203125 173.589844 143.898438 173.519531 142.59375 173.421875 C 141.289062 173.328125 139.992188 173.207031 138.695312 173.066406 C 137.398438 172.921875 136.109375 172.757812 134.824219 172.566406 C 133.539062 172.375 132.257812 172.160156 130.988281 171.925781 C 129.71875 171.6875 128.453125 171.429688 127.199219 171.144531 C 125.945312 170.863281 124.703125 170.554688 123.46875 170.226562 C 122.234375 169.898438 121.015625 169.550781 119.804688 169.175781 C 118.59375 168.804688 117.394531 168.40625 116.210938 167.992188 C 115.027344 167.574219 113.855469 167.136719 112.699219 166.675781 C 111.546875 166.21875 110.40625 165.738281 109.28125 165.234375 C 108.15625 164.734375 107.050781 164.210938 105.960938 163.671875 C 104.871094 163.128906 103.800781 162.566406 102.75 161.988281 C 101.695312 161.40625 100.664062 160.808594 99.652344 160.1875 C 98.636719 159.570312 97.644531 158.933594 96.675781 158.277344 C 95.703125 157.625 94.757812 156.953125 93.828125 156.261719 C 92.902344 155.574219 92 154.867188 91.121094 154.144531 C 90.238281 153.421875 89.382812 152.683594 88.554688 151.929688 C 87.722656 151.179688 86.914062 150.410156 86.136719 149.625 C 85.355469 148.84375 84.601562 148.046875 83.871094 147.234375 C 83.144531 146.425781 82.445312 145.601562 81.769531 144.765625 C 81.097656 143.929688 80.449219 143.082031 79.832031 142.222656 C 79.214844 141.363281 78.625 140.492188 78.066406 139.609375 C 77.507812 138.730469 76.976562 137.839844 76.472656 136.9375 C 75.972656 136.035156 75.5 135.128906 75.058594 134.210938 C 74.617188 133.292969 74.207031 132.367188 73.828125 131.433594 C 73.445312 130.5 73.097656 129.5625 72.777344 128.617188 C 72.460938 127.667969 72.171875 126.71875 71.917969 125.761719 C 71.664062 124.808594 71.4375 123.847656 71.246094 122.882812 C 71.054688 121.917969 70.894531 120.949219 70.765625 119.980469 C 70.636719 119.011719 70.539062 118.039062 70.476562 117.0625 C 70.410156 116.089844 70.378906 115.117188 70.378906 114.140625 C 70.378906 113.167969 70.410156 112.191406 70.476562 111.21875 C 70.539062 110.246094 70.636719 109.273438 70.765625 108.304688 C 70.894531 107.332031 71.054688 106.367188 71.246094 105.402344 C 71.4375 104.4375 71.664062 103.476562 71.917969 102.519531 C 72.171875 101.5625 72.460938 100.613281 72.777344 99.667969 C 73.097656 98.722656 73.445312 97.78125 73.828125 96.847656 C 74.207031 95.917969 74.617188 94.992188 75.058594 94.074219 C 75.5 93.15625 75.972656 92.246094 76.472656 91.34375 C 76.976562 90.445312 77.507812 89.554688 78.066406 88.671875 C 78.625 87.792969 79.214844 86.921875 79.832031 86.0625 C 80.449219 85.203125 81.097656 84.351562 81.769531 83.515625 C 82.445312 82.679688 83.144531 81.859375 83.871094 81.046875 C 84.601562 80.234375 85.355469 79.441406 86.136719 78.65625 C 86.914062 77.875 87.722656 77.105469 88.554688 76.351562 C 89.382812 75.597656 90.238281 74.859375 91.121094 74.136719 C 92 73.414062 92.902344 72.710938 93.828125 72.019531 C 94.757812 71.332031 95.703125 70.660156 96.675781 70.003906 C 97.644531 69.347656 98.636719 68.710938 99.652344 68.09375 C 100.664062 67.476562 101.695312 66.875 102.75 66.296875 C 103.800781 65.714844 104.871094 65.152344 105.960938 64.613281 C 107.050781 64.070312 108.15625 63.550781 109.28125 63.046875 C 110.40625 62.546875 111.546875 62.066406 112.699219 61.605469 C 113.855469 61.148438 115.027344 60.707031 116.210938 60.292969 C 117.394531 59.875 118.59375 59.480469 119.804688 59.105469 C 121.015625 58.734375 122.234375 58.382812 123.46875 58.054688 C 124.703125 57.726562 125.945312 57.421875 127.199219 57.136719 C 128.453125 56.855469 129.71875 56.59375 130.988281 56.359375 C 132.257812 56.121094 133.539062 55.90625 134.824219 55.71875 C 136.109375 55.527344 137.398438 55.359375 138.695312 55.21875 C 139.992188 55.074219 141.289062 54.957031 142.59375 54.859375 C 143.898438 54.765625 145.203125 54.691406 146.511719 54.644531 C 147.820312 54.597656 149.132812 54.574219 150.441406 54.574219 C 151.753906 54.574219 153.0625 54.597656 154.371094 54.644531 C 155.679688 54.691406 156.984375 54.765625 158.289062 54.859375 C 159.59375 54.957031 160.894531 55.074219 162.1875 55.21875 C 163.484375 55.359375 164.777344 55.527344 166.0625 55.71875 C 167.347656 55.90625 168.625 56.121094 169.894531 56.359375 C 171.167969 56.59375 172.429688 56.855469 173.683594 57.136719 C 174.9375 57.421875 176.179688 57.726562 177.414062 58.054688 C 178.648438 58.382812 179.871094 58.734375 181.082031 59.105469 C 182.289062 59.480469 183.488281 59.875 184.671875 60.292969 C 185.855469 60.707031 187.027344 61.148438 188.183594 61.605469 C 189.339844 62.066406 190.476562 62.546875 191.601562 63.046875 C 192.726562 63.550781 193.832031 64.070312 194.921875 64.613281 C 196.011719 65.152344 197.082031 65.714844 198.136719 66.296875 C 199.1875 66.875 200.21875 67.476562 201.234375 68.09375 C 202.246094 68.710938 203.238281 69.347656 204.207031 70.003906 C 205.179688 70.660156 206.128906 71.332031 207.054688 72.019531 C 207.980469 72.710938 208.882812 73.414062 209.765625 74.136719 C 210.644531 74.859375 211.5 75.597656 212.332031 76.351562 C 213.160156 77.105469 213.96875 77.875 214.75 78.65625 C 215.527344 79.441406 216.28125 80.234375 217.011719 81.046875 C 217.738281 81.859375 218.441406 82.679688 219.113281 83.515625 C 219.785156 84.351562 220.433594 85.203125 221.050781 86.0625 C 221.667969 86.921875 222.257812 87.792969 222.816406 88.671875 C 223.378906 89.554688 223.910156 90.445312 224.410156 91.34375 C 224.910156 92.246094 225.382812 93.15625 225.824219 94.074219 C 226.265625 94.992188 226.675781 95.917969 227.054688 96.847656 C 227.4375 97.78125 227.785156 98.722656 228.105469 99.667969 C 228.421875 100.613281 228.710938 101.5625 228.964844 102.519531 C 229.222656 103.476562 229.445312 104.4375 229.636719 105.402344 C 229.828125 106.367188 229.988281 107.332031 230.117188 108.304688 C 230.246094 109.273438 230.34375 110.246094 230.40625 111.21875 C 230.472656 112.191406 230.503906 113.167969 230.503906 114.140625 Z M 230.503906 114.140625 " fill-opacity="0.85" fill-rule="nonzero"/></g></g><g clip-path="url(#5600d9549a)"><g clip-path="url(#059a1f68f4)"><path fill="#ff9397" d="M 157.734375 128.8125 C 157.316406 129.539062 156.867188 130.246094 156.394531 130.9375 C 155.917969 131.628906 155.417969 132.296875 154.894531 132.945312 C 154.367188 133.59375 153.820312 134.214844 153.25 134.8125 C 152.679688 135.410156 152.085938 135.980469 151.476562 136.523438 C 150.863281 137.066406 150.238281 137.578125 149.589844 138.0625 C 148.945312 138.542969 148.285156 138.992188 147.613281 139.410156 C 146.941406 139.828125 146.253906 140.210938 145.5625 140.558594 C 144.867188 140.90625 144.164062 141.21875 143.453125 141.492188 C 142.742188 141.769531 142.03125 142.007812 141.3125 142.207031 C 140.59375 142.40625 139.875 142.566406 139.15625 142.691406 C 138.4375 142.816406 137.722656 142.898438 137.007812 142.945312 C 136.296875 142.988281 135.589844 142.992188 134.886719 142.960938 C 134.1875 142.925781 133.496094 142.851562 132.816406 142.742188 C 132.136719 142.628906 131.46875 142.476562 130.8125 142.289062 C 130.15625 142.097656 129.519531 141.871094 128.894531 141.605469 C 128.273438 141.34375 127.667969 141.039062 127.085938 140.703125 C 126.5 140.363281 125.9375 139.992188 125.398438 139.585938 C 124.855469 139.175781 124.339844 138.738281 123.847656 138.261719 C 123.359375 137.789062 122.894531 137.285156 122.457031 136.75 C 122.019531 136.21875 121.609375 135.65625 121.230469 135.0625 C 120.851562 134.472656 120.503906 133.859375 120.183594 133.21875 C 119.867188 132.578125 119.582031 131.914062 119.328125 131.230469 C 119.074219 130.542969 118.855469 129.839844 118.671875 129.117188 C 118.484375 128.394531 118.332031 127.65625 118.214844 126.902344 C 118.101562 126.148438 118.019531 125.386719 117.972656 124.609375 C 117.925781 123.832031 117.914062 123.046875 117.9375 122.253906 C 117.960938 121.460938 118.019531 120.667969 118.117188 119.867188 C 118.210938 119.066406 118.339844 118.265625 118.503906 117.460938 C 118.667969 116.660156 118.863281 115.863281 119.097656 115.070312 C 119.328125 114.277344 119.59375 113.488281 119.890625 112.710938 C 120.1875 111.929688 120.515625 111.160156 120.875 110.40625 C 121.234375 109.648438 121.625 108.90625 122.042969 108.179688 C 122.464844 107.453125 122.910156 106.742188 123.386719 106.050781 C 123.859375 105.359375 124.359375 104.691406 124.886719 104.042969 C 125.410156 103.398438 125.960938 102.773438 126.53125 102.175781 C 127.101562 101.578125 127.691406 101.007812 128.304688 100.464844 C 128.914062 99.921875 129.542969 99.410156 130.1875 98.929688 C 130.832031 98.445312 131.492188 97.996094 132.167969 97.578125 C 132.839844 97.164062 133.523438 96.78125 134.21875 96.433594 C 134.914062 96.082031 135.617188 95.773438 136.324219 95.496094 C 137.035156 95.222656 137.75 94.984375 138.46875 94.785156 C 139.183594 94.582031 139.902344 94.421875 140.621094 94.296875 C 141.339844 94.175781 142.058594 94.089844 142.769531 94.046875 C 143.484375 94 144.191406 93.996094 144.890625 94.03125 C 145.589844 94.0625 146.28125 94.136719 146.964844 94.25 C 147.644531 94.359375 148.3125 94.511719 148.96875 94.699219 C 149.621094 94.890625 150.261719 95.117188 150.882812 95.382812 C 151.507812 95.648438 152.109375 95.949219 152.695312 96.285156 C 153.28125 96.625 153.84375 96.996094 154.382812 97.40625 C 154.921875 97.8125 155.4375 98.253906 155.929688 98.726562 C 156.421875 99.199219 156.886719 99.703125 157.324219 100.238281 C 157.761719 100.773438 158.167969 101.335938 158.550781 101.925781 C 158.929688 102.515625 159.277344 103.132812 159.59375 103.773438 C 159.914062 104.414062 160.199219 105.074219 160.449219 105.761719 C 160.703125 106.445312 160.921875 107.148438 161.109375 107.871094 C 161.292969 108.59375 161.445312 109.332031 161.5625 110.085938 C 161.679688 110.839844 161.761719 111.605469 161.808594 112.382812 C 161.855469 113.15625 161.867188 113.941406 161.839844 114.734375 C 161.816406 115.527344 161.757812 116.324219 161.664062 117.125 C 161.570312 117.925781 161.441406 118.726562 161.277344 119.527344 C 161.113281 120.328125 160.914062 121.125 160.683594 121.921875 C 160.453125 122.714844 160.1875 123.5 159.890625 124.28125 C 159.59375 125.058594 159.265625 125.828125 158.902344 126.585938 C 158.542969 127.339844 158.152344 128.082031 157.734375 128.8125 Z M 157.734375 128.8125 " fill-opacity="0.85" fill-rule="nonzero"/></g></g><path fill="#454545" d="M 257.382812 254.78125 C 257.382812 256.132812 257.316406 257.480469 257.183594 258.824219 C 257.050781 260.167969 256.855469 261.503906 256.589844 262.828125 C 256.328125 264.152344 256 265.460938 255.609375 266.753906 C 255.21875 268.046875 254.761719 269.320312 254.246094 270.566406 C 253.730469 271.816406 253.15625 273.035156 252.519531 274.226562 C 251.882812 275.417969 251.1875 276.574219 250.441406 277.699219 C 249.691406 278.824219 248.886719 279.90625 248.03125 280.953125 C 247.175781 281.996094 246.269531 282.996094 245.316406 283.949219 C 244.363281 284.90625 243.363281 285.8125 242.320312 286.667969 C 241.277344 287.527344 240.195312 288.332031 239.074219 289.082031 C 237.949219 289.832031 236.792969 290.527344 235.605469 291.164062 C 234.414062 291.800781 233.195312 292.375 231.949219 292.894531 C 230.703125 293.410156 229.433594 293.867188 228.140625 294.257812 C 226.851562 294.648438 225.542969 294.976562 224.21875 295.242188 C 222.898438 295.503906 221.5625 295.703125 220.222656 295.835938 C 218.878906 295.96875 217.53125 296.035156 216.183594 296.035156 C 214.832031 296.035156 213.488281 295.96875 212.144531 295.835938 C 210.800781 295.703125 209.46875 295.503906 208.144531 295.242188 C 206.820312 294.976562 205.515625 294.648438 204.222656 294.257812 C 202.929688 293.867188 201.664062 293.410156 200.414062 292.894531 C 199.167969 292.375 197.949219 291.800781 196.761719 291.164062 C 195.570312 290.527344 194.414062 289.832031 193.292969 289.082031 C 192.171875 288.332031 191.089844 287.527344 190.042969 286.667969 C 189 285.8125 188.003906 284.90625 187.050781 283.949219 C 186.09375 282.996094 185.191406 281.996094 184.332031 280.953125 C 183.476562 279.90625 182.675781 278.824219 181.925781 277.699219 C 181.175781 276.574219 180.484375 275.417969 179.847656 274.226562 C 179.210938 273.035156 178.632812 271.816406 178.117188 270.566406 C 177.601562 269.320312 177.148438 268.046875 176.753906 266.753906 C 176.363281 265.460938 176.035156 264.152344 175.773438 262.828125 C 175.511719 261.503906 175.3125 260.167969 175.179688 258.824219 C 175.046875 257.480469 174.980469 256.132812 174.980469 254.78125 C 174.980469 253.429688 175.046875 252.082031 175.179688 250.738281 C 175.3125 249.390625 175.511719 248.058594 175.773438 246.730469 C 176.035156 245.40625 176.363281 244.097656 176.753906 242.804688 C 177.148438 241.511719 177.601562 240.242188 178.117188 238.992188 C 178.632812 237.746094 179.210938 236.523438 179.847656 235.332031 C 180.484375 234.140625 181.175781 232.984375 181.925781 231.859375 C 182.675781 230.738281 183.476562 229.652344 184.332031 228.609375 C 185.191406 227.5625 186.09375 226.566406 187.050781 225.609375 C 188.003906 224.652344 189 223.746094 190.042969 222.890625 C 191.089844 222.03125 192.171875 221.230469 193.292969 220.480469 C 194.414062 219.726562 195.570312 219.035156 196.761719 218.398438 C 197.949219 217.761719 199.167969 217.183594 200.414062 216.667969 C 201.664062 216.148438 202.929688 215.695312 204.222656 215.300781 C 205.515625 214.910156 206.820312 214.582031 208.144531 214.320312 C 209.46875 214.054688 210.800781 213.855469 212.144531 213.726562 C 213.488281 213.59375 214.832031 213.527344 216.183594 213.527344 C 217.53125 213.527344 218.878906 213.59375 220.222656 213.726562 C 221.5625 213.855469 222.898438 214.054688 224.21875 214.320312 C 225.542969 214.582031 226.851562 214.910156 228.140625 215.300781 C 229.433594 215.695312 230.703125 216.148438 231.949219 216.667969 C 233.195312 217.183594 234.414062 217.761719 235.605469 218.398438 C 236.792969 219.035156 237.949219 219.726562 239.074219 220.480469 C 240.195312 221.230469 241.277344 222.035156 242.320312 222.890625 C 243.363281 223.746094 244.363281 224.652344 245.316406 225.609375 C 246.269531 226.566406 247.175781 227.5625 248.03125 228.609375 C 248.886719 229.652344 249.691406 230.738281 250.441406 231.859375 C 251.1875 232.984375 251.882812 234.140625 252.519531 235.332031 C 253.15625 236.523438 253.730469 237.746094 254.246094 238.992188 C 254.761719 240.242188 255.21875 241.511719 255.609375 242.804688 C 256 244.097656 256.328125 245.40625 256.589844 246.730469 C 256.855469 248.058594 257.050781 249.390625 257.183594 250.738281 C 257.316406 252.082031 257.382812 253.429688 257.382812 254.78125 Z M 257.382812 254.78125 " fill-opacity="1" fill-rule="nonzero"/><path fill="#ffffff" d="M 252.554688 254.78125 C 252.554688 255.972656 252.496094 257.164062 252.378906 258.351562 C 252.261719 259.535156 252.085938 260.714844 251.855469 261.886719 C 251.621094 263.054688 251.332031 264.210938 250.988281 265.351562 C 250.640625 266.492188 250.242188 267.613281 249.785156 268.71875 C 249.328125 269.820312 248.820312 270.894531 248.257812 271.949219 C 247.699219 273 247.085938 274.019531 246.425781 275.011719 C 245.761719 276.003906 245.054688 276.960938 244.296875 277.882812 C 243.542969 278.804688 242.742188 279.6875 241.902344 280.53125 C 241.058594 281.375 240.175781 282.175781 239.257812 282.933594 C 238.335938 283.6875 237.378906 284.398438 236.390625 285.0625 C 235.398438 285.722656 234.378906 286.335938 233.328125 286.898438 C 232.277344 287.460938 231.203125 287.96875 230.101562 288.425781 C 229 288.882812 227.878906 289.285156 226.742188 289.628906 C 225.601562 289.976562 224.445312 290.265625 223.277344 290.5 C 222.109375 290.730469 220.933594 290.90625 219.746094 291.023438 C 218.5625 291.140625 217.375 291.199219 216.183594 291.199219 C 214.992188 291.199219 213.804688 291.140625 212.617188 291.023438 C 211.433594 290.90625 210.253906 290.730469 209.085938 290.5 C 207.917969 290.265625 206.765625 289.976562 205.625 289.628906 C 204.484375 289.285156 203.363281 288.882812 202.261719 288.425781 C 201.164062 287.96875 200.085938 287.460938 199.035156 286.898438 C 197.984375 286.335938 196.964844 285.722656 195.976562 285.0625 C 194.984375 284.398438 194.027344 283.6875 193.109375 282.933594 C 192.1875 282.175781 191.304688 281.375 190.464844 280.53125 C 189.621094 279.6875 188.824219 278.804688 188.066406 277.882812 C 187.3125 276.960938 186.601562 276.003906 185.941406 275.011719 C 185.277344 274.019531 184.667969 273 184.105469 271.949219 C 183.542969 270.894531 183.035156 269.820312 182.578125 268.71875 C 182.125 267.613281 181.722656 266.492188 181.375 265.351562 C 181.03125 264.210938 180.742188 263.054688 180.507812 261.886719 C 180.277344 260.714844 180.101562 259.535156 179.984375 258.351562 C 179.867188 257.164062 179.8125 255.972656 179.8125 254.78125 C 179.8125 253.585938 179.867188 252.398438 179.984375 251.210938 C 180.101562 250.023438 180.277344 248.84375 180.507812 247.675781 C 180.742188 246.503906 181.03125 245.351562 181.375 244.207031 C 181.722656 243.066406 182.125 241.945312 182.578125 240.84375 C 183.035156 239.742188 183.542969 238.664062 184.105469 237.613281 C 184.667969 236.558594 185.277344 235.539062 185.941406 234.546875 C 186.601562 233.554688 187.3125 232.597656 188.066406 231.675781 C 188.824219 230.753906 189.621094 229.871094 190.464844 229.027344 C 191.304688 228.183594 192.1875 227.382812 193.109375 226.628906 C 194.027344 225.871094 194.984375 225.160156 195.976562 224.5 C 196.964844 223.835938 197.984375 223.222656 199.035156 222.660156 C 200.085938 222.097656 201.164062 221.589844 202.261719 221.132812 C 203.363281 220.675781 204.484375 220.277344 205.625 219.929688 C 206.765625 219.582031 207.917969 219.292969 209.085938 219.0625 C 210.253906 218.828125 211.433594 218.652344 212.617188 218.535156 C 213.804688 218.417969 214.992188 218.363281 216.183594 218.363281 C 217.375 218.363281 218.5625 218.417969 219.746094 218.535156 C 220.933594 218.652344 222.109375 218.828125 223.277344 219.0625 C 224.445312 219.292969 225.601562 219.582031 226.742188 219.929688 C 227.878906 220.277344 229 220.675781 230.101562 221.132812 C 231.203125 221.589844 232.277344 222.097656 233.328125 222.660156 C 234.378906 223.222656 235.398438 223.835938 236.390625 224.5 C 237.378906 225.160156 238.335938 225.871094 239.257812 226.628906 C 240.175781 227.382812 241.058594 228.183594 241.902344 229.027344 C 242.742188 229.871094 243.542969 230.753906 244.296875 231.675781 C 245.054688 232.597656 245.761719 233.554688 246.425781 234.546875 C 247.085938 235.539062 247.699219 236.558594 248.257812 237.613281 C 248.820312 238.664062 249.328125 239.742188 249.785156 240.84375 C 250.242188 241.945312 250.640625 243.066406 250.988281 244.207031 C 251.332031 245.351562 251.621094 246.503906 251.855469 247.675781 C 252.085938 248.84375 252.261719 250.023438 252.378906 251.210938 C 252.496094 252.398438 252.554688 253.585938 252.554688 254.78125 Z M 252.554688 254.78125 " fill-opacity="1" fill-rule="nonzero"/><path fill="#218800" d="M 199.078125 225.113281 C 182.714844 234.574219 177.105469 255.523438 186.554688 271.910156 C 196 288.292969 216.925781 293.90625 233.289062 284.449219 L 231.535156 281.410156 C 216.847656 289.898438 198.070312 284.859375 189.589844 270.15625 C 181.109375 255.449219 186.140625 236.644531 200.828125 228.152344 Z M 199.078125 225.113281 " fill-opacity="1" fill-rule="evenodd"/><path fill="#f85055" d="M 222.160156 288.511719 C 238.492188 285.609375 250.394531 271.390625 250.394531 254.78125 C 250.394531 235.875 235.0625 220.523438 216.183594 220.523438 C 197.289062 220.523438 181.96875 235.863281 181.96875 254.78125 L 185.472656 254.78125 C 185.472656 237.800781 199.222656 224.035156 216.183594 224.035156 C 233.128906 224.035156 246.890625 237.8125 246.890625 254.78125 C 246.890625 269.691406 236.207031 282.453125 221.546875 285.058594 Z M 222.160156 288.511719 " fill-opacity="1" fill-rule="evenodd"/><path fill="#454545" d="M 198.132812 238.207031 C 197.800781 237.78125 197.835938 237.175781 198.21875 236.792969 C 198.601562 236.414062 199.207031 236.375 199.628906 236.707031 C 207.339844 242.75 218.773438 251.707031 218.773438 251.707031 L 213.109375 257.375 C 213.109375 257.375 204.164062 245.925781 198.132812 238.207031 Z M 198.132812 238.207031 " fill-opacity="1" fill-rule="evenodd"/><path fill="#454545" d="M 224.023438 254.78125 C 224.023438 255.296875 223.976562 255.808594 223.875 256.3125 C 223.773438 256.820312 223.625 257.308594 223.429688 257.785156 C 223.230469 258.261719 222.988281 258.714844 222.703125 259.144531 C 222.417969 259.570312 222.09375 259.96875 221.726562 260.332031 C 221.363281 260.699219 220.96875 261.023438 220.539062 261.308594 C 220.113281 261.597656 219.660156 261.839844 219.183594 262.035156 C 218.707031 262.234375 218.21875 262.382812 217.710938 262.484375 C 217.207031 262.582031 216.699219 262.632812 216.183594 262.632812 C 215.667969 262.632812 215.15625 262.582031 214.652344 262.484375 C 214.148438 262.382812 213.65625 262.234375 213.179688 262.035156 C 212.707031 261.839844 212.253906 261.597656 211.824219 261.308594 C 211.398438 261.023438 211 260.699219 210.636719 260.332031 C 210.273438 259.96875 209.949219 259.570312 209.660156 259.144531 C 209.375 258.714844 209.132812 258.261719 208.9375 257.785156 C 208.738281 257.308594 208.589844 256.820312 208.492188 256.3125 C 208.390625 255.808594 208.339844 255.296875 208.339844 254.78125 C 208.339844 254.265625 208.390625 253.753906 208.492188 253.25 C 208.589844 252.742188 208.738281 252.25 208.9375 251.777344 C 209.132812 251.300781 209.375 250.847656 209.660156 250.417969 C 209.949219 249.988281 210.273438 249.59375 210.636719 249.226562 C 211 248.863281 211.398438 248.539062 211.824219 248.25 C 212.253906 247.964844 212.707031 247.722656 213.179688 247.527344 C 213.65625 247.328125 214.148438 247.179688 214.652344 247.078125 C 215.15625 246.976562 215.667969 246.929688 216.183594 246.929688 C 216.699219 246.929688 217.207031 246.976562 217.710938 247.078125 C 218.21875 247.179688 218.707031 247.328125 219.183594 247.527344 C 219.660156 247.722656 220.113281 247.964844 220.539062 248.25 C 220.96875 248.539062 221.363281 248.863281 221.726562 249.226562 C 222.09375 249.59375 222.417969 249.988281 222.703125 250.417969 C 222.988281 250.847656 223.230469 251.300781 223.429688 251.777344 C 223.625 252.25 223.773438 252.742188 223.875 253.25 C 223.976562 253.753906 224.023438 254.265625 224.023438 254.78125 Z M 224.023438 254.78125 " fill-opacity="1" fill-rule="nonzero"/><g clip-path="url(#1355bcb84c)"><g mask="url(#8d6bcc4c86)"><g transform="matrix(1, 0, 0, 1, 0.000000000000000028, 0)"><g clip-path="url(#164558d841)"><g clip-path="url(#15809e3232)"><path fill="#2f2b37" d="M -17.273438 -2.683594 L 382.492188 -2.683594 L 382.492188 306.5 L -17.273438 306.5 Z M -17.273438 -2.683594 " fill-opacity="1" fill-rule="nonzero"/></g></g></g></g></g></svg>